<svg width="8" height="785" viewBox="0 0 8 785" fill="none" xmlns="http://www.w3.org/2000/svg">
<path d="M7.99406 746.509C8.04203 747.444 7.78262 748.765 7.76896 749.869C7.70897 754.492 7.52915 756.205 7.42716 760.388C7.27418 766.652 7.62337 785.363 5.76065 784.995C5.41732 784.93 5.0425 783.365 4.6542 783.132C4.26576 782.9 1.75807 783.074 1.61709 780.85C1.43131 777.626 2.07429 769.891 2.0458 768.171C2.02616 766.995 1.79819 765.548 1.75771 764.045C1.62725 759.198 1.79396 756.661 1.1747 752.294C1.50104 750.547 1.82737 748.801 2.15371 747.054C2.0024 744.775 2.43279 741.32 2.40908 739.936C2.38959 738.8 2.13153 738.134 2.11953 736.95C2.10462 735.622 2.38317 733.583 2.34121 731.168C2.27372 727.208 1.60053 726.503 1.51504 724.128C1.42657 721.664 1.79246 717.832 1.55557 714.689C1.48151 714.294 1.40745 713.9 1.3334 713.506C1.16592 713.788 0.998436 714.071 0.830955 714.353C0.752992 712.77 1.09623 712.089 1.10244 710.634C1.10994 708.922 0.784534 708.049 0.786033 706.897C0.787549 705.953 1.04847 704.674 1.03213 703.45C1.00963 701.666 0.63289 702.056 0.5624 701.097C0.535019 700.714 0.327115 693.632 0.324119 693.233C0.309263 690.195 0.824928 689.93 0.870019 687.507C0.993 680.788 0.576323 673.89 0.418847 667.674C0.348399 664.899 0.378364 662.003 0.460839 659.236C1.78059 663.595 2.80769 653.948 0.742578 657.556C1.03637 654.477 0.478885 652.294 0.573145 649.375C0.634635 647.487 0.920976 646.18 0.913478 643.484C0.898346 638.701 0.0844157 633.469 1.55557 632.093C1.29622 626.478 1.82987 621.615 0.531154 619.591C0.451816 618.143 1.22539 614.432 1.33047 612.808C1.42946 611.273 1.77875 599.488 1.79825 597.56C1.81774 595.632 1.83895 592.258 1.72501 590.634C1.58403 588.594 0.237157 587.169 1.81192 583.537C1.68449 579.314 1.72955 577.81 1.91251 573.882C1.94559 573.171 2.17939 573.091 2.1796 572.676C2.1796 571.82 2.00682 570.364 1.98575 568.837C1.95125 566.325 2.44319 564.891 1.6918 565.171C1.56583 563.515 1.43985 561.859 1.31387 560.203C1.45889 559.622 1.60391 559.041 1.74893 558.46C1.59089 557.575 1.43285 556.69 1.27481 555.804C2.36212 556.844 1.72048 550.613 1.09659 552.636C1.32152 549.426 1.54646 546.216 1.77139 543.006C3.00715 543.453 1.914 535.957 1.2421 536.588C1.24307 536.221 1.24405 535.854 1.24503 535.486C1.57348 532.271 1.30483 529.317 1.5253 525.398C1.74576 521.478 1.86608 521.846 2.43448 520.654C2.40193 519.732 2.36938 518.81 2.33683 517.887C0.77857 513.048 3.47648 513.903 2.28116 505.616C3.26052 502.968 2.74609 496.441 2.44913 492.113C2.41464 491.61 2.22454 491.601 2.16593 490.93C2.02496 489.291 2.26933 485.107 1.65616 485.25C1.83357 483.802 2.01098 482.353 2.18839 480.905C2.0769 479.721 1.96541 478.537 1.85392 477.353C1.66251 477.359 1.4711 477.365 1.2797 477.371C1.93205 474.987 1.68134 471.242 1.83732 469.394C1.86893 469.026 2.13297 468.947 2.20499 467.804C2.29048 466.468 2.21235 463.978 2.29484 462.387C2.00236 461.768 1.70987 461.149 1.41739 460.53C1.25875 457.683 2.03075 456.683 2.09073 455.011C2.10116 454.71 2.0457 449.219 2.02921 448.923C1.89857 446.501 1.24088 447.187 1.38175 440.182C1.40724 438.935 1.63481 437.926 1.64396 436.798C1.66045 434.806 1.14432 428.804 0.667393 428.333C1.2643 425.917 1.02031 419.453 1.19279 417.549C1.24581 416.975 1.62602 416.845 1.70695 415.079C1.77293 413.647 1.4685 409.959 1.51945 408.143C1.57493 406.216 1.89433 405.527 1.91691 404.664C1.93791 403.848 1.68006 403.096 1.68156 401.984C1.69055 398.513 2.10556 395.369 2.1132 392.626C2.1252 388.658 1.36181 385.153 1.02286 381.833C1.07236 381.009 1.23621 380.2 1.23771 379.336C1.26171 368.649 1.40237 356.594 1.56584 345.875C1.64092 340.899 2.67713 328.525 0.948159 331.827C0.645367 330.098 1.34245 317.525 1.35295 315.133C1.36334 312.742 1.05332 310.847 1.04875 308.967C1.03525 303.296 1.25865 299.302 0.988689 292.398C0.918111 290.615 0.550822 288.705 0.555094 287.649C0.561093 286.377 0.916317 285.008 0.938884 283.361C0.989873 279.433 0.873028 272.114 0.93449 268.346C0.946489 267.658 1.25839 267.417 1.35588 266.433C1.73679 262.601 1.70375 258.306 0.707928 259.066C1.27329 254.155 0.757584 249.612 0.725995 245.061C0.661505 235.437 0.893944 217.908 0.475507 209.524C0.211537 204.238 -0.235092 204.374 0.150312 196.591C0.235786 194.863 0.351075 193.143 0.453047 191.048C0.693007 186.136 1.51811 181.631 0.523849 177.887C0.781714 172.432 0.598845 168.088 1.44914 164.04C1.24521 163.563 1.04127 163.086 0.837327 162.609C0.832281 161.94 0.827236 161.271 0.82219 160.602C1.01669 160.394 1.21119 160.185 1.40569 159.977C1.45806 155.186 0.658645 149.107 0.664476 145.052C0.673474 138.252 0.984049 120.739 1.24651 114.292C1.38588 110.869 0.969313 110.685 1.82561 108.725C1.76604 107.959 1.70647 107.194 1.6469 106.428C1.4594 105.949 1.2719 105.47 1.0844 104.991C1.0769 100.599 1.36814 95.3906 1.36516 91.207C1.35916 83.5836 0.84312 72.1361 1.18206 64.4807C1.26753 62.5611 1.6542 60.1617 1.64983 58.282C1.64383 55.5462 1.00216 54.8812 0.990164 51.4095C0.970667 45.4259 1.7161 34.2826 1.65911 28.627C1.6426 26.9472 1.40385 26.1635 1.37835 25.0036C1.26887 20.14 1.28831 16.1469 0.919365 11.4832C1.53427 6.47569 2.32797 6.90828 3.12884 5.35641C3.7333 4.18031 5.13412 0.573992 5.66352 0.0620557C6.03545 -0.297548 6.51389 1.0451 6.92329 0.541183C7.25023 6.54067 6.89031 9.06116 6.3144 13.9328C6.33735 22.9294 6.36029 31.926 6.38324 40.9226C6.15977 41.7411 5.9363 42.5596 5.71283 43.3781C5.71234 43.3781 5.71185 43.3781 5.71137 43.3781C5.45347 46.8331 6.02897 48.2974 6.15961 50.1608C7.41042 67.9994 6.43145 103.11 6.29047 122.748C6.26048 126.98 6.56161 140.747 6.19867 143.65C6.10415 144.402 5.75956 144.611 5.74457 145.411C5.94948 152.557 6.1544 159.703 6.35931 166.849C5.8239 181.544 6.26608 196.736 6.34857 211.543C6.57203 251.603 6.84365 291.264 6.76116 330.669C6.74466 338.284 7.00283 347.948 6.83636 355.404C6.76733 358.515 6.21397 359.811 6.62639 363.899C6.47731 363.942 6.32822 363.985 6.17913 364.028C6.35911 367.595 6.69835 369.875 6.73284 373.874C6.76133 377.242 6.78347 386.152 6.72649 389.128C6.698 390.672 6.41941 390.097 6.42083 391.536C6.42532 394 6.81046 399.264 6.81047 402.663C6.81047 405.743 6.48957 410.935 6.53606 413.303C6.70104 421.83 7.17672 431.119 7.04924 440.206C7.01317 442.716 6.65196 445.945 6.66204 446.731C6.68303 448.267 7.03392 448.724 7.07903 449.756C7.30698 454.995 6.89 463.162 6.87346 468.298C6.81947 485.033 6.97262 502.761 6.90813 519.424C6.86764 529.951 6.92939 547.445 6.66545 557.164C6.60846 559.26 6.22404 558.701 6.22404 560.461C6.22412 562.412 6.48381 563.469 6.5048 564.381C6.65179 570.693 6.91429 584.627 6.64885 590.586C6.59788 591.721 6.29668 592.544 6.29777 593.224C6.29777 593.568 6.50332 594.345 6.52433 595.425C6.7103 604.96 6.59043 611.913 6.51994 621.256C6.38647 639.15 6.76887 659.884 6.56193 678.682C6.51693 682.778 5.92116 685.587 5.92716 686.163C5.93918 687.426 6.3399 688.236 6.43888 690.795C6.76423 699.306 6.33662 710.768 6.53751 718.863C6.63648 722.862 7.14517 728.358 7.25773 732.294C7.3477 735.437 7.14816 742.861 7.3715 744.254C7.50643 745.101 7.9398 745.494 7.99406 746.509ZM1.24795 640.613C1.94085 641.173 1.36501 635.288 0.993068 637.495C0.90932 637.993 1.06809 640.468 1.24795 640.613ZM2.45109 365.034C2.25317 365.088 2.05526 365.142 1.85734 365.196C1.9397 365.968 2.02205 366.741 2.10441 367.513C2.22339 367.079 2.34237 366.645 2.46134 366.211C2.45793 365.819 2.45451 365.426 2.45109 365.034Z" fill="#1C1C1E"/>
</svg>
