<svg width="1147" height="8" viewBox="0 0 1147 8" fill="none" xmlns="http://www.w3.org/2000/svg">
<path d="M10.9252 0.0406795C17.3527 -0.0635319 25.7781 0.047895 32.1813 0.200835C34.188 0.248269 33.1719 0.460302 34.5571 0.502592C37.2665 0.585033 39.7906 0.481044 42.468 0.579252C43.3553 0.612836 42.2508 0.948697 43.1812 0.976223C48.2796 1.12465 53.103 1.03911 58.2678 1.1105C83.708 1.46274 108.715 1.58882 134.467 1.74185C142.957 1.79202 153.279 2.09682 162.049 1.96352C163.073 1.94766 162.463 1.65286 162.658 1.62856C165.713 1.2566 164.697 1.85174 166.692 1.93081C174.609 2.24302 183.413 2.27017 191.033 2.1564C194.274 2.10713 191.024 1.52158 194.288 1.85024C194.515 1.87245 193.692 2.18551 194.581 2.21889C196.597 2.29399 200.422 2.23804 201.984 2.26284C204.996 2.31223 205.494 2.30908 208.342 2.31264C212.235 2.32025 216.866 2.47586 221.044 2.40493C221.936 2.38886 220.755 2.06794 222.177 2.01333C223.6 1.95881 227.366 1.98602 228.635 2.06167C229.905 2.13736 229.364 2.38959 229.589 2.44741C231.438 2.9354 235.793 2.25954 236.354 2.24282C246.572 1.95803 255.334 2.34304 264.925 2.34194C272.207 2.34029 279.993 2.21318 286.921 2.23061C295.175 2.25262 302.171 2.42652 310.19 2.39663C311.036 2.39384 310.044 2.01652 311.078 2.01235C322.059 1.96844 332.964 2.00958 343.898 2.26431C344.995 2.29018 343.582 2.62147 344.677 2.66714C351.385 2.9394 361.997 3.59343 365.981 2.15102C370.525 2.20735 376.041 2.26554 380.105 2.5563C382.726 2.74343 380.181 3.10434 383.4 2.95034C384.126 2.91603 383.182 2.59996 384.271 2.57241C388.855 2.4567 393.864 2.55944 398.399 2.39614C399.322 2.36218 399.07 2.07898 399.331 2.02798C401.528 1.61497 405.185 2.2977 405.982 2.34731C412.052 2.71726 416.485 2.57168 422.14 2.58071C423.453 2.58297 421.901 2.20256 423.164 2.19106C429.713 2.13654 436.498 2.16924 442.911 2.33804C444.337 2.3765 443.025 2.70054 443.707 2.7355C446.713 2.8857 447.379 2.27367 450.261 2.40591C450.869 2.433 450.527 2.7104 450.638 2.74087C452.373 3.21911 453.88 2.54147 454.326 2.52651C459.971 2.32209 463.579 3.02951 469.032 2.92934C469.685 2.91664 468.213 2.56565 470.047 2.55141C482.264 2.45452 495.185 2.55094 507.278 2.83169C509.158 2.87486 507.816 3.13854 507.934 3.17104C509.863 3.67891 511.111 2.99843 511.724 2.9728C516.56 2.78833 521.078 3.35899 524.364 2.54848C544.848 2.82976 565.237 2.37461 585.551 3.10073C585.809 3.10914 585.346 3.44428 585.862 3.45961C592.066 3.64779 590.875 3.12692 594.98 2.48989C596.014 2.32993 599.16 3.09904 599.439 3.15542C600.453 3.36317 599.401 3.86176 599.74 3.902C602.551 4.21793 602.093 2.56904 605.884 2.5685C606.002 2.57125 605.504 2.87475 605.822 2.90493C606.811 2.99967 607.791 2.87907 608.758 2.98354C610.972 3.22529 611.761 4.0265 615.142 3.5602C615.57 3.49968 614.917 2.56436 618.301 2.60854C619.651 2.62695 625.623 2.61092 627.297 2.67153C628.969 2.73207 627.821 3.03348 627.94 3.04653C632.445 3.44509 630.737 3.61027 632.994 4.20033C635.251 4.78817 634.625 3.38612 635.545 3.22963C636.466 3.07359 639.77 3.40243 640.581 3.51674C641.392 3.63111 640.38 3.82263 641.102 3.88735C645.885 4.31018 643.201 3.19142 644.777 2.96889C648.493 2.44199 651.387 3.48175 654.788 3.58364C655.708 3.61115 654.958 3.37434 655.777 3.35219C659.023 3.26762 660.975 3.59205 664.668 3.29458C665.272 3.2461 668.258 2.62097 670.19 3.07973C670.464 3.14589 669.686 3.40499 671.069 3.46303C673.136 3.55014 676.859 3.60677 679.081 3.52016C680.721 3.45608 678.841 3.02913 680.905 3.16176C681.823 3.22098 680.123 3.47075 681.846 3.56118C683.561 3.65157 687.944 3.6406 689.613 3.63198C691.278 3.62316 690.366 3.2993 690.501 3.27749C691.315 3.1525 694.511 2.99634 694.793 2.99672C709.037 2.95719 722.172 3.50309 736.041 3.32241C737.129 3.3087 736.404 2.96718 736.57 2.96157C740.296 2.81848 737.359 3.72649 739.961 4.03041C739.585 3.33738 741.121 3.46287 743.746 3.38686C745.011 3.34967 744.322 3.08132 744.437 3.05385C746.313 2.64627 747.619 3.17272 747.955 3.28042C749.197 3.67658 750.549 3.20848 751.394 3.47329C752.239 3.73611 750.295 4.12574 752.812 4.12074C753.518 3.87266 751.649 3.22435 753.56 3.11928C760.77 2.72184 774.23 3.23051 780.027 3.28334C785.813 3.33614 787.682 3.29037 791.053 3.38002C797.143 3.54213 794.911 3.06113 798.693 2.84096C802.486 2.62082 800.642 3.80431 801.187 4.05873C801.722 4.31304 802.307 4.05126 802.972 4.19106C803.636 4.33082 802.199 4.50381 803.76 4.55629C805.321 4.60872 809.59 4.1563 810.144 3.89028C811.314 3.32669 809.39 2.73518 813.521 2.94301C813.759 2.95535 812.988 3.26654 813.898 3.29799C821.124 3.53756 828.632 3.55241 835.849 3.7643C836.842 3.79392 835.955 4.14012 836.532 4.16127C842.548 4.3827 840.397 3.79898 843.695 3.15053C842.954 4.01347 844.778 4.54143 849.343 4.54652C852.088 4.54989 851.616 4.173 853.391 3.90737C853.923 3.82729 855.865 4.08608 856.217 3.90883C857.378 3.32944 855.548 2.68084 860.256 2.93911C860.462 2.95138 859.805 3.26853 860.518 3.28774C865.131 3.41346 865.683 2.80742 870.669 2.73403C874.578 2.67644 881.529 3.046 885.979 3.1061C885.886 4.0763 890.089 3.85413 891.794 3.1852C894.682 3.21259 897.802 3.17477 900.593 3.26723C901.554 3.29875 900.923 3.57965 901.044 3.61C902.902 4.08612 904.157 3.43532 904.781 3.40981C911.537 3.16179 917.042 3.65505 923.49 3.17299C923.719 3.15563 924.09 2.4817 925.813 2.97378C925.925 3.00769 923.795 3.31432 926.829 3.33803C929.862 3.3618 935.581 3.72307 939.793 3.41079C940.812 3.3356 943.39 2.78851 945.459 3.21596C945.735 3.27401 945.433 3.46729 945.831 3.57485C947.118 3.91756 947.82 3.23639 949.332 3.81508C950.844 4.39375 953.988 4.82713 958.236 4.42787C958.371 4.41626 959.377 3.87637 960.712 3.88491C962.844 3.899 965.872 4.01147 968.098 4.00795C969.164 4.00607 968.482 3.67082 968.667 3.66469C975.835 3.47683 980.936 3.7757 988.615 3.90541C990.022 3.92985 994.067 3.47269 996.792 3.83412C999.784 4.22978 996.71 5.87565 1003.59 5.48353C1006.36 5.32669 1009.87 3.23861 1014.86 4.32045C1024.53 4.05238 1033.47 4.60606 1043.16 4.22328C1043.6 4.20632 1044.98 3.62356 1046 3.63149C1047.52 3.64439 1048.36 3.91677 1049.45 3.93471C1054 4.01675 1058.17 3.78372 1062.56 3.81996C1064.22 3.83313 1063.64 4.11477 1065.63 4.13051C1067.61 4.14599 1068.94 3.77513 1071.63 3.95424C1073.66 4.09077 1075.7 4.84879 1078.39 4.93715C1078.5 4.18944 1080.35 4.20484 1083.65 4.00746C1084.28 3.96917 1083.6 3.70893 1083.9 3.67739C1085.12 3.54326 1086.25 3.75894 1087.4 3.61293C1087.69 3.57787 1087.7 3.32252 1087.93 3.27944C1089.89 2.90339 1093.11 3.47777 1093.67 3.57778C1095.79 3.95758 1096.78 3.62548 1098.41 3.77504C1100.03 3.92459 1097.6 4.11154 1099.5 4.20229C1103.44 4.38999 1108.5 4.34876 1112.49 4.36049C1114.09 4.3636 1113 4.02275 1113.23 4.01528C1116.53 3.92883 1119.86 4.29139 1121.69 3.61245C1123.98 5.36795 1123.68 3.44217 1128.39 3.7936C1128.76 3.82202 1129.24 4.65219 1127.81 4.77406C1126.39 4.89582 1124.22 4.63633 1122.25 4.82631C1121.78 4.87089 1119.09 5.64881 1118.73 5.69593C1115.86 6.06421 1115.45 4.82365 1115.3 4.75551C1113.58 4.02018 1110.3 4.85824 1109.44 4.91615C1105.49 5.18149 1102.13 5.00703 1098.83 5.19642C1096.67 5.31883 1096.46 6.13145 1094.76 6.10658C1089.12 6.02436 1087.15 4.89076 1081.83 5.87367C1080.69 6.0833 1081.83 6.97147 1077.74 6.27308C1077.49 6.22905 1074.45 5.59015 1072.7 5.99427C1072.48 6.04523 1072.49 6.30407 1072.2 6.32582C1070.25 6.46647 1068.96 6.26026 1066.84 6.35902C1064.72 6.45778 1062.17 6.60501 1059.76 6.51722C1058.3 6.46472 1056.43 5.98246 1055.73 5.86439C1053.76 5.52426 1051.65 6.08193 1050.43 5.67006C1049.2 5.25611 1051.6 4.62746 1048.37 4.36C1048.26 5.0325 1047.98 5.72275 1047.79 6.39906C1040.72 6.37538 1033.76 6.15792 1026.66 6.18763C1025.78 6.19199 1026.68 6.55352 1025.74 6.56751C1021.76 6.62495 1018.28 6.36722 1014.15 6.46986C1010.96 6.55069 1007.46 6.93348 1004.12 7.02991C1002.08 6.26039 997.12 6.52163 993.519 6.4513C992.258 6.427 992.343 6.22148 991.445 6.15443C988.062 5.90645 989.647 6.58647 988.72 6.69349C984.739 7.15022 984.399 5.61103 979.706 5.64906C979.458 5.65055 976.419 6.47101 976 6.5221C973.341 6.85527 975.56 6.23653 973.895 6.17591C970.857 6.06513 968.745 5.86919 965.18 6.10951C964.14 6.18069 961.646 6.69207 959.627 6.29652C959.361 6.24472 959.508 5.97353 959.295 5.95765C955.425 5.69292 955.323 6.54504 953.112 6.83363C950.9 7.12215 947.485 6.53393 946.789 6.36439C944.971 5.92581 948.183 6.17696 948.281 6.13392C949.438 5.62174 946.947 5.70992 945.044 5.66664C944.768 4.83113 942.106 4.88128 943.07 5.62513C943.18 5.70638 944.661 5.62847 945.044 5.66664C943.373 6.48639 940.447 6.59137 937.216 5.82533C935.703 5.4663 937.133 5.04768 932.539 5.20082C930.453 5.26995 931.259 5.84524 929.419 6.00209C925.215 6.35994 919.752 5.82329 915.417 5.90785C913.844 5.93855 915.377 6.25346 914.302 6.28529C911.448 6.37075 908.933 6.13446 906.067 6.2555C905.808 6.26687 906.442 6.59652 905.551 6.60072C898.796 6.639 892.914 6.42786 885.861 6.42201C882.454 6.41933 876.361 6.60114 872.831 6.56458C866.713 6.50318 859.186 6.02382 853.96 6.14027C850.551 6.21481 851.298 6.54453 849.838 6.76917C847.019 7.20463 842.03 6.42462 841.358 6.30384C841.338 6.29985 844.271 6.22212 842.706 6.05287C841.796 5.7002 841.391 6.30231 841.358 6.30384C840.917 6.22582 835.057 6.15097 833.894 6.214C833.261 6.24844 833.615 6.56083 833.285 6.57289C825.45 6.85244 817.601 6.93184 809.654 6.78578C809.514 6.77946 809.724 6.43004 809.395 6.41957C804.795 6.2642 801.849 6.69166 798.054 6.94544C794.26 7.19912 791.252 7.11415 789.006 6.51429C786.143 6.58982 782.036 6.32462 779.673 6.16371C777.31 6.00279 776.98 6.68297 776.772 6.69642C770.286 7.1268 766.537 6.73748 759.808 6.67689C756.609 6.64692 750.264 6.74558 746.8 6.81995C744.063 6.87987 742.413 6.72047 739.891 6.8224C739.55 6.83601 739.894 7.13886 739.791 7.15052C736.975 7.51286 738.328 6.7725 737.747 6.64027C735.64 6.15942 734.338 5.90332 730.733 6.12953C729.902 6.18133 727.48 7.24736 725.964 7.3097C723.993 7.3888 724.737 7.00669 722.674 7.09925C722.497 7.10682 722.534 7.34255 721.26 7.33216C715.349 7.28701 708.904 7.14984 702.761 7.17347C701.922 7.17579 702.997 7.5497 701.785 7.55921C696.096 7.60353 689.86 7.58969 684.318 7.41468C682.954 7.37042 683.809 7.10862 683.513 7.03089C681.695 6.56055 679.117 7.24394 678.691 7.25696C668.544 7.58537 660.777 6.96691 650.435 7.26136C649.872 7.27865 645.538 8.01126 643.605 7.38294C643.472 7.34114 641.559 6.69831 639.868 7.13782C639.763 7.16532 640.955 7.49626 638.875 7.46253C636.795 7.42887 633.447 7.64987 630.588 7.28626C629.682 7.17172 627.543 6.53047 624.843 7.04163C624.667 7.07732 620.498 8.23312 619.01 7.43568C618.769 7.30441 619.022 6.46053 615.799 6.8932C615.183 6.97708 616.301 7.16531 614.678 7.28284C612.193 7.46399 608.9 7.23797 605.844 7.6139C605.311 7.68045 603.043 8.25322 601.224 7.81849C600.939 7.7504 601.48 7.46867 600.519 7.43714C595.95 7.2859 591.166 7.47435 586.527 7.27943C584.883 7.21093 585.724 6.75548 584.011 6.63343C582.297 6.51142 578.846 6.39405 577.054 6.60218C575.261 6.8104 577.22 7.53628 574.534 7.59437C562.857 7.84664 551.29 7.42082 539.63 7.35853C537.901 7.34922 539.335 7.60897 536.786 7.6139C527.391 7.63322 511.169 7.87676 503.016 7.32484C496.484 6.88278 504.705 6.54623 499.713 6.36634C497.304 6.28053 494.698 7.12444 494.117 7.15101C488.436 7.42089 484.489 7.04705 479.376 7.16175C478.32 7.18555 479.356 7.5276 478.457 7.54407C475.388 7.60339 472.162 7.45072 469.229 7.47864C467.913 7.49196 468.156 7.7532 466.945 7.73304C464.048 7.6878 461.486 7.57799 458.662 7.33314C458.405 7.31082 460.141 6.98585 457.997 6.97376C454.528 6.95512 450.223 6.71358 446.232 6.96302C445.047 7.03806 445.001 7.63512 442.456 7.22279C441.922 7.13667 442.603 6.41972 439.638 7.03919C439.139 7.14213 434.158 7.97768 431.714 7.43909C431.069 7.29734 429.423 6.71067 427.999 6.80286C427.806 6.81758 428.58 7.13828 427.4 7.16956C423.241 7.27423 418.883 7.24001 414.61 7.34046C413.469 7.36792 415.169 7.69978 413.468 7.73011C408.792 7.81399 402.954 7.72949 398.382 7.62562C396.696 7.58669 397.861 7.31178 397.738 7.28187C395.766 6.79527 394.599 7.45207 393.945 7.49036C389.873 7.71968 386.772 7.41116 383.019 7.4928C381.983 7.5145 382.718 7.82767 382.512 7.8556C380.373 8.12844 381.966 7.56603 380.613 7.50403C376.821 7.3285 372.594 7.35367 368.76 7.39368C367.351 7.40884 368.934 7.77197 367.67 7.78138C360.189 7.84395 352.411 7.8092 345.11 7.60901C343.735 7.57066 344.6 7.29104 344.314 7.22718C342.339 6.78036 339.445 7.38983 338.779 7.44788C335.751 7.71297 334.575 7.46569 331.901 7.51185C318.838 7.74164 302.708 7.57787 290.378 7.47669C274.309 7.34648 261.841 7.08047 246.518 7.14954C245.544 7.15358 246.526 7.52556 245.687 7.53382C234.848 7.62349 224.177 7.47814 213.317 7.58558C212.426 7.59373 213.71 7.94637 212.28 7.97132C209.346 8.02496 205.629 8.00579 202.663 7.89319C201.216 7.83894 203.156 7.53635 201.7 7.48792C198.309 7.37447 194.673 7.34936 191.19 7.40589C189.708 7.43072 191.944 7.79138 190.017 7.79554C176.892 7.83132 164.002 7.89343 150.739 7.4264C149.83 7.39432 149.032 6.66132 147.099 6.80189C146.953 7.00532 146.961 7.24461 146.897 7.46204C127.791 7.57917 108.879 7.32506 89.7186 7.28577C88.9108 7.2842 90.3069 7.67258 88.7429 7.67151C79.6908 7.66577 70.9006 7.77337 61.6413 7.38734C60.7226 7.34958 61.1939 6.66633 58.4866 6.76966C58.0091 6.78852 53.9315 6.87964 52.8772 7.02796C52.734 7.05033 53.4779 7.36925 52.164 7.37855C44.5283 7.42698 36.5265 7.35417 28.904 7.15931C27.6738 7.12725 28.9839 6.78763 28.1077 6.76185C21.8923 6.58156 15.1317 6.83974 9.19255 6.53138C5.21711 6.32376 6.68893 5.73669 4.57643 5.15883C4.27764 5.0773 1.81593 5.06438 1.68863 4.72816C1.3618 3.88272 2.55418 2.95697 2.06492 2.05581C1.96155 1.86171 -1.33532 2.07077 0.616637 1.60171C0.753003 1.57032 3.14325 1.41464 3.73197 1.25552C4.14186 1.14551 3.40323 0.803576 4.23952 0.662747C5.07575 0.522051 5.99466 0.808676 7.38111 0.643216C8.76694 0.475709 8.15758 0.0867252 10.9252 0.0406795ZM769.032 5.44447C766.844 5.11782 766.521 6.3142 768.887 6.02796C769.002 6.01271 769.145 5.4605 769.032 5.44447ZM1033.8 5.25551C1030.93 4.72782 1028.98 5.50373 1031 5.91127C1033.01 6.31836 1034.67 5.41547 1033.8 5.25551ZM1063.46 4.87025C1060.12 4.4542 1059.59 6.15071 1063.17 5.80775C1063.38 5.78837 1063.66 4.89441 1063.46 4.87025ZM14.3731 4.99428C14.3429 4.97839 12.5733 4.96291 12.531 4.97865C11.5888 5.35862 15.1272 5.38932 14.3731 4.99428ZM1092.9 4.45082C1091.86 4.22133 1088.85 4.48625 1090.15 4.77162C1091.19 5.00119 1094.2 4.73629 1092.9 4.45082ZM654.88 4.16762C654.846 4.14979 653.577 4.13374 653.603 4.23451C653.689 4.55909 655.454 4.46749 654.88 4.16762ZM1142.93 4.43129C1135.54 4.36743 1131.06 2.96603 1139.11 3.12417C1140.57 3.15278 1135.97 3.57106 1137.82 3.69741C1141.22 3.92758 1143.47 3.04768 1146.94 3.51918C1147.56 3.60549 1143.35 4.43805 1142.92 4.43324C1142.92 4.43259 1142.93 4.43194 1142.93 4.43129ZM767.772 4.00746C767.728 3.99164 765.972 3.97664 765.93 3.99233C764.978 4.37214 768.516 4.40258 767.772 4.00746ZM580.852 3.42788C580.755 3.39416 576.679 3.36264 576.546 3.3937C574.42 4.0148 582.66 4.08038 580.852 3.42788ZM886.049 3.13198C887.965 2.74988 890.258 2.70489 891.785 3.18471C889.881 3.15924 887.964 3.15549 886.049 3.13198Z" fill="#1C1C1E"/>
</svg>
